<?xml version="1.0" encoding="utf-8"?>
<!-- Generator: Adobe Illustrator 17.0.0, SVG Export Plug-In . SVG Version: 6.00 Build 0)  -->
<!DOCTYPE svg PUBLIC "-//W3C//DTD SVG 1.1//EN" "http://www.w3.org/Graphics/SVG/1.1/DTD/svg11.dtd">
<svg version="1.1" id="Layer_1" xmlns="http://www.w3.org/2000/svg" xmlns:xlink="http://www.w3.org/1999/xlink" x="0px" y="0px"
	 width="612px" height="792px" viewBox="0 0 612 792" enable-background="new 0 0 612 792" xml:space="preserve">
<g>
	<g>
		<path fill="#259F4F" d="M373.405,396l228.818-228.828c6.294-6.299,9.767-14.703,9.777-23.664c0-8.966-3.473-17.38-9.777-23.669
			l-20.052-20.047c-6.304-6.314-14.708-9.772-23.679-9.772c-8.956,0-17.36,3.458-23.664,9.772L306.01,328.605L77.182,99.792
			c-6.294-6.314-14.703-9.772-23.669-9.772c-8.956,0-17.365,3.458-23.659,9.772L9.792,119.839
			c-13.056,13.056-13.056,34.292,0,47.333L238.615,396L9.792,624.818c-6.299,6.309-9.767,14.713-9.767,23.674
			s3.468,17.365,9.767,23.669l20.057,20.047c6.294,6.309,14.708,9.772,23.659,9.772c8.966,0,17.375-3.463,23.669-9.772
			L306.005,463.39l228.818,228.818c6.304,6.309,14.708,9.772,23.664,9.772h0.01c8.961,0,17.365-3.463,23.669-9.772l20.052-20.047
			c6.294-6.299,9.767-14.708,9.767-23.669s-3.473-17.365-9.767-23.669L373.405,396z"/>
	</g>
</g>
</svg>
